<svg xmlns="http://www.w3.org/2000/svg" width="25" height="24" viewBox="0 0 25 24">
  <path id="sflame" d="M17.918,10.993a5.5,5.5,0,0,0-.721-2.5L13.283,1.654A5.485,5.485,0,0,1,12.664,0L12.5.286a5.515,5.515,0,0,0,0,5.472l3.132,5.473a5.516,5.516,0,0,1,0,5.472l-.164.286a5.493,5.493,0,0,0-.619-1.654l-2.867-5.01-1.831-3.2a5.51,5.51,0,0,1-.619-1.654l-.163.286a5.515,5.515,0,0,0-.01,5.455h0L12.5,16.7a5.516,5.516,0,0,1,0,5.472l-.164.286a5.5,5.5,0,0,0-.619-1.654L7.8,13.967a5.508,5.508,0,0,1-.721-2.973C2.892,12.1,0,14.444,0,17.16,0,20.937,5.6,24,12.5,24S25,20.937,25,17.16c0-2.716-2.892-5.062-7.082-6.166" fill="#fff"/>
</svg>
