<svg xmlns="http://www.w3.org/2000/svg" width="476.339" height="711" viewBox="0 0 476.339 711">
  <g id="Group_7" data-name="Group 7" transform="translate(-335.072 -217)">
    <g id="Group_3" data-name="Group 3" transform="translate(-653 -231)">
      <g id="surface1" transform="translate(1007.5 428)">
        <path id="Path_1" data-name="Path 1" d="M413.477,341.91c-13.762,37.3-34.574,69.727-61.867,96.379-31.066,30.336-71.746,54.441-120.91,71.637A36.982,36.982,0,0,1,218.949,512h-.441a37.542,37.542,0,0,1-7.211-.711,38.958,38.958,0,0,1-4.957-1.352c-49.223-17.168-89.953-41.262-121.051-71.6-27.3-26.652-48.113-59.062-61.855-96.359C-1.555,274.168-.133,199.465,1.012,139.434l.02-.922c.23-4.957.379-10.164.461-15.914a54.265,54.265,0,0,1,51.1-53.16C111.457,66.152,157,66.953,195.906,29.027l.34-.312a32.8,32.8,0,0,1,44.527,0l.332.313c38.918,37.926,84.457,37.125,143.324,40.41a54.265,54.265,0,0,1,51.1,53.16c.082,5.789.23,10.988.461,15.914l.012.391C437.141,199.047,438.555,273.9,413.477,341.91Zm0,0" fill="#ec0000"/>
        <path id="Path_2" data-name="Path 2" d="M413.477,341.91c-13.762,37.3-34.574,69.727-61.867,96.379-31.066,30.336-71.746,54.441-120.91,71.637A36.982,36.982,0,0,1,218.949,512V20a32.85,32.85,0,0,1,21.824,8.711l.332.313c38.918,37.926,84.457,37.125,143.324,40.41a54.265,54.265,0,0,1,51.1,53.16c.082,5.789.23,10.988.461,15.914l.012.391C437.141,199.047,438.555,273.9,413.477,341.91Zm0,0" fill="#d80000"/>
      </g>
      <path id="sflame" d="M206.982,126.987a63.534,63.534,0,0,0-8.329-28.879l-45.213-79A63.36,63.36,0,0,1,146.29,0L144.4,3.3a63.707,63.707,0,0,0,0,63.21l36.18,63.222a63.719,63.719,0,0,1,0,63.21l-1.894,3.3a63.453,63.453,0,0,0-7.15-19.106L138.411,119.27,117.26,82.305A63.65,63.65,0,0,1,110.11,63.2l-1.883,3.3a63.707,63.707,0,0,0-.116,63.014h0l36.284,63.4a63.719,63.719,0,0,1,0,63.21l-1.894,3.3a63.533,63.533,0,0,0-7.15-19.106L90.1,161.341A63.626,63.626,0,0,1,81.774,127C33.407,139.774,0,166.851,0,198.226c0,43.63,64.689,79.013,144.4,79.013s144.4-35.383,144.4-79.013c0-31.374-33.407-58.474-81.808-71.227" transform="translate(1081.186 530.615)" fill="#fff"/>
    </g>
    <g id="_6.-Symbols" data-name="6.-Symbols" transform="translate(335.072 742.934)">
      <g id="components_header_desktop-1024_forms" data-name="components/header/desktop-1024/forms" transform="translate(0 0)">
        <g id="Group-2" transform="translate(0 0)">
          <g id="Group">
            <g id="Santander_44">
              <path id="Shape" d="M139.088,106.294A35.685,35.685,0,0,1,141.1,95.652a49.361,49.361,0,0,0,19.317,4.274c9.787,0,15.257-3.162,15.257-9.4s-3.974-8.975-13.889-13.291l-5.385-2.65c-9.915-4.274-16.667-9.915-16.667-21.112,0-12.009,8.334-19.7,25.428-19.7A58.036,58.036,0,0,1,184.431,36.8a39.1,39.1,0,0,1-2.094,10.556,53.762,53.762,0,0,0-17.308-2.692c-9.146,0-13.376,3.59-13.376,9.146s4.274,8.547,11.5,11.838l5.684,2.393c13.376,5.727,18.975,11.71,18.975,21.966,0,12.137-9.146,20.471-27.095,20.471A50.9,50.9,0,0,1,139.088,106.294ZM244.475,55.865v52.907H233.791l-.6-6.325a16.24,16.24,0,0,1-14.872,7.607c-13.932,0-23.206-10.128-23.206-27.864,0-18.547,9.915-29.1,29.4-29.1A59.83,59.83,0,0,1,244.475,55.865ZM232.851,96.593V63.472a47.009,47.009,0,0,0-8.334-.641c-12.009,0-17.607,7.393-17.607,19.188,0,10.77,4.274,18.377,14.659,18.377A18.206,18.206,0,0,0,232.851,96.593Zm70.985-23.419v35.6H292.254V75.182c0-8.334-2.778-12.351-14.359-12.351a55.3,55.3,0,0,0-9.188.855v45.087H257.125V55.865a98.849,98.849,0,0,1,21.069-2.949C297.6,52.916,303.836,60.4,303.836,73.173Zm32.18,26.8a26.411,26.411,0,0,0,9.06-1.581,91.4,91.4,0,0,1-1.368,9.787,25.984,25.984,0,0,1-9.787,1.709c-11.325,0-18.291-5.171-18.291-18.206V36.121a40.172,40.172,0,0,1,11.582-1.667V54.369h18.334a94.032,94.032,0,0,1-1.068,9.915H327.383V89.926C327.041,97.319,330.418,99.969,336.016,99.969Zm62.224-44.1v52.907H387.6l-.641-6.325a16.154,16.154,0,0,1-14.872,7.607c-13.932,0-23.206-10.128-23.206-27.864,0-18.547,9.915-29.1,29.445-29.1A59.489,59.489,0,0,1,398.24,55.865ZM386.658,96.593V63.472a47.522,47.522,0,0,0-8.547-.641c-12.052,0-17.65,7.393-17.65,19.188,0,10.77,4.274,18.377,14.658,18.377A18.334,18.334,0,0,0,386.658,96.593ZM457.6,73.173v35.6H446.019V75.182c0-8.334-2.735-12.351-14.359-12.351a54.787,54.787,0,0,0-9.146.855v45.087H410.89V55.865A98.806,98.806,0,0,1,432,52.916C451.4,52.916,457.6,60.4,457.6,73.173Zm58.89-38.462v74.062H505.807l-.6-6.752a16.069,16.069,0,0,1-15.086,8.034c-13.932,0-23.206-10.128-23.206-27.864,0-18.547,9.915-29.1,29.4-29.1a43.591,43.591,0,0,1,8.547.855V36.377A34.787,34.787,0,0,1,516.491,34.8Zm-11.5,61.668V63.9a46.154,46.154,0,0,0-9.316-1.068c-11.5,0-17.094,7.18-17.094,19.188,0,10.77,4.274,18.377,14.659,18.377A18.548,18.548,0,0,0,504.995,96.379Zm69.788-10.342H537.859c1.5,9.4,6.966,13.932,17.308,13.932a44.873,44.873,0,0,0,18.547-4.017c-.427,3.077-1.026,7.051-1.795,10.556a40.257,40.257,0,0,1-17.094,3.376c-19.445,0-28.8-10.769-28.8-28.8,0-15.727,7.265-28.163,25.642-28.163,16.539,0,23.719,10.855,23.719,24.146A61.2,61.2,0,0,1,574.783,86.037Zm-37.223-9.7h26.155c0-8.547-4.616-13.718-12.821-13.718S538.5,67.361,537.56,76.336Zm77.865-23.12a42.734,42.734,0,0,1-1.068,9.915A69.489,69.489,0,0,0,605.6,62.7a57.522,57.522,0,0,0-8.547.641v45.428H585.467V55.865a71.412,71.412,0,0,1,19.83-2.949A99.621,99.621,0,0,1,615.425,53.215Z" transform="translate(-139.088 -33.766)" fill="#ec0000"/>
            </g>
          </g>
        </g>
      </g>
    </g>
    <text id="VERIFIED" transform="translate(359 901)" fill="#ec0000" font-size="73" font-family="AvenirNext-UltraLight, Avenir Next" font-weight="100" letter-spacing="0.24em"><tspan x="0" y="0">VERIFIED</tspan></text>
  </g>
</svg>
