<svg xmlns="http://www.w3.org/2000/svg" width="436.008" height="492" viewBox="0 0 436.008 492">
  <g id="Group_6" data-name="Group 6" transform="translate(-943 -223)">
    <g id="Group_5" data-name="Group 5" transform="translate(-65 -225)">
      <g id="surface1" transform="translate(1007.5 428)">
        <path id="Path_1" data-name="Path 1" d="M413.477,341.91c-13.762,37.3-34.574,69.727-61.867,96.379-31.066,30.336-71.746,54.441-120.91,71.637A36.982,36.982,0,0,1,218.949,512h-.441a37.542,37.542,0,0,1-7.211-.711,38.958,38.958,0,0,1-4.957-1.352c-49.223-17.168-89.953-41.262-121.051-71.6-27.3-26.652-48.113-59.062-61.855-96.359C-1.555,274.168-.133,199.465,1.012,139.434l.02-.922c.23-4.957.379-10.164.461-15.914a54.265,54.265,0,0,1,51.1-53.16C111.457,66.152,157,66.953,195.906,29.027l.34-.312a32.8,32.8,0,0,1,44.527,0l.332.313c38.918,37.926,84.457,37.125,143.324,40.41a54.265,54.265,0,0,1,51.1,53.16c.082,5.789.23,10.988.461,15.914l.012.391C437.141,199.047,438.555,273.9,413.477,341.91Zm0,0" fill="#dedede"/>
        <path id="Path_2" data-name="Path 2" d="M413.477,341.91c-13.762,37.3-34.574,69.727-61.867,96.379-31.066,30.336-71.746,54.441-120.91,71.637A36.982,36.982,0,0,1,218.949,512V20a32.85,32.85,0,0,1,21.824,8.711l.332.313c38.918,37.926,84.457,37.125,143.324,40.41a54.265,54.265,0,0,1,51.1,53.16c.082,5.789.23,10.988.461,15.914l.012.391C437.141,199.047,438.555,273.9,413.477,341.91Zm0,0" fill="#c3c3c3"/>
      </g>
      <line id="Line_1" data-name="Line 1" x2="156" y2="156" transform="translate(1148.5 615.5)" fill="none" stroke="#fff" stroke-linecap="round" stroke-width="30"/>
      <line id="Line_2" data-name="Line 2" x1="156" y2="156" transform="translate(1148.5 615.5)" fill="none" stroke="#fff" stroke-linecap="round" stroke-width="30"/>
    </g>
  </g>
</svg>
