<svg xmlns="http://www.w3.org/2000/svg" width="436.008" height="492" viewBox="0 0 436.008 492">
  <g id="Group_4" data-name="Group 4" transform="translate(-1008 -448)">
    <g id="surface1" transform="translate(1007.5 428)">
      <path id="Path_1" data-name="Path 1" d="M413.477,341.91c-13.762,37.3-34.574,69.727-61.867,96.379-31.066,30.336-71.746,54.441-120.91,71.637A36.982,36.982,0,0,1,218.949,512h-.441a37.542,37.542,0,0,1-7.211-.711,38.958,38.958,0,0,1-4.957-1.352c-49.223-17.168-89.953-41.262-121.051-71.6-27.3-26.652-48.113-59.062-61.855-96.359C-1.555,274.168-.133,199.465,1.012,139.434l.02-.922c.23-4.957.379-10.164.461-15.914a54.265,54.265,0,0,1,51.1-53.16C111.457,66.152,157,66.953,195.906,29.027l.34-.312a32.8,32.8,0,0,1,44.527,0l.332.313c38.918,37.926,84.457,37.125,143.324,40.41a54.265,54.265,0,0,1,51.1,53.16c.082,5.789.23,10.988.461,15.914l.012.391C437.141,199.047,438.555,273.9,413.477,341.91Zm0,0" fill="#ec0000"/>
      <path id="Path_2" data-name="Path 2" d="M413.477,341.91c-13.762,37.3-34.574,69.727-61.867,96.379-31.066,30.336-71.746,54.441-120.91,71.637A36.982,36.982,0,0,1,218.949,512V20a32.85,32.85,0,0,1,21.824,8.711l.332.313c38.918,37.926,84.457,37.125,143.324,40.41a54.265,54.265,0,0,1,51.1,53.16c.082,5.789.23,10.988.461,15.914l.012.391C437.141,199.047,438.555,273.9,413.477,341.91Zm0,0" fill="#d80000"/>
    </g>
    <path id="sflame" d="M206.982,126.987a63.534,63.534,0,0,0-8.329-28.879l-45.213-79A63.36,63.36,0,0,1,146.29,0L144.4,3.3a63.707,63.707,0,0,0,0,63.21l36.18,63.222a63.719,63.719,0,0,1,0,63.21l-1.894,3.3a63.453,63.453,0,0,0-7.15-19.106L138.411,119.27,117.26,82.305A63.65,63.65,0,0,1,110.11,63.2l-1.883,3.3a63.707,63.707,0,0,0-.116,63.014h0l36.284,63.4a63.719,63.719,0,0,1,0,63.21l-1.894,3.3a63.533,63.533,0,0,0-7.15-19.106L90.1,161.341A63.626,63.626,0,0,1,81.774,127C33.407,139.774,0,166.851,0,198.226c0,43.63,64.689,79.013,144.4,79.013s144.4-35.383,144.4-79.013c0-31.374-33.407-58.474-81.808-71.227" transform="translate(1081.186 530.615)" fill="#fff"/>
  </g>
</svg>
